%
T1C0.016F200S100
X-234700Y104400
X-232700Y095500
X-229300Y097700
X-222000Y077947
X-219844Y080195
X-219521Y083951
X-219050Y083978
X-218534Y083960
X-218400Y097900
X-218040Y083960
X-217700Y091100
X-217000Y108100
X-216608Y098257
X-216300Y078900
X-215674Y079574
X-215674Y086296
X-215400Y096150
X-215400Y096900
X-214650Y096150
X-214650Y096900
X-214650Y097650
X-213900Y096150
X-213900Y096900
X-213771Y098039
X-212213Y109867
X-212200Y106800
X-211900Y078000
X-209702Y080200
X-209339Y083916
X-208866Y083932
X-208519Y104739
X-208331Y083956
X-208005Y098027
X-207932Y107868
X-207913Y107868
X-207843Y083956
X-207400Y091100
X-206309Y105300
X-206300Y098400
X-206100Y078900
X-205448Y079567
X-205421Y086260
X-205200Y096100
X-205200Y096850
X-204450Y096100
X-204450Y096850
X-204450Y097600
X-203700Y096100
X-203700Y096850
X-203558Y098017
X-202100Y106700
X-202000Y109900
X-201700Y078000
X-201690Y077988
X-200900Y115400
X-199600Y080200
X-199209Y083959
X-198740Y083989
X-198252Y084022
X-198000Y104300
X-197800Y098000
X-197748Y084015
X-197489Y107872
X-197428Y107872
X-197300Y090985
X-196288Y105302
X-196062Y098340
X-195751Y078874
X-195734Y078883
X-195155Y079746
X-195093Y086300
X-195000Y096150
X-195000Y096900
X-194350Y084150
X-194250Y096150
X-194250Y096900
X-194250Y097650
X-193500Y096150
X-193500Y096900
X-193290Y097952
X-192499Y082300
X-192470Y082300
X-191900Y109600
X-191700Y084100
X-191556Y078400
X-191000Y084100
X-190165Y087100
X-190100Y109100
X-190000Y087100
X-189600Y082300
X-189600Y099700
X-187392Y102009
X-184500Y077200
X-184300Y081600
X-184300Y085700
X-184000Y086900
X-183302Y087702
X-182831Y077700
X-182800Y112400
X-182400Y088400
X-182000Y077800
X-181200Y079000
X-181200Y081800
X-181200Y082500
X-181111Y091792
X-179200Y082400
X-178900Y087100
X-177050Y084750
X-176400Y081800
X-175700Y081700
X-174400Y087600
X-171900Y091700
T4C0.055F200S100
X-212610Y113450
X-211050Y113450
X-209490Y113450
X-207930Y113450
X-206370Y113450
X-204810Y113450
X-203250Y113450
X-201690Y113450
X-200130Y113450
X-198570Y113450
X-197010Y113450
X-195450Y113450
X-178967Y093300
X-178967Y096300
X-178967Y099300
X-178967Y103300
X-178967Y105200
X-178967Y108200
X-178967Y111200
X-178967Y115200
T3C0.037F200S100
X-237150Y080450
X-237150Y081450
X-237150Y082450
X-237150Y083450
X-237150Y084450
X-237150Y085450
X-237150Y086450
X-237150Y087450
X-237150Y088450
X-237150Y089450
X-237150Y090450
X-237150Y091450
X-237150Y092450
X-237150Y093450
X-237150Y094450
X-237150Y095450
X-237100Y104350
X-237100Y105350
X-223150Y080450
X-223150Y081450
X-223150Y082450
X-223150Y083450
X-223150Y084450
X-223150Y085450
X-223150Y086450
X-223150Y087450
X-223150Y088450
X-223150Y089450
X-223150Y090450
X-223150Y091450
X-223150Y092450
X-223150Y093450
X-223150Y094450
X-223150Y095450
X-193500Y077200
X-192500Y077200
X-191500Y077200
X-184250Y094300
X-184250Y096300
X-184250Y101050
X-184250Y103050
X-175150Y105300
X-175100Y112450
X-173150Y105300
X-173100Y112450
T2C0.031F200S100
X-185750Y078000
X-185750Y079000
X-185750Y083800
X-185750Y084800
X-185600Y088800
X-185600Y089800
X-180200Y087050
X-180200Y088050
X-178800Y077350
X-177800Y077350
X-172050Y083750
X-172050Y084750
T5C0.125F200S100
X-237250Y077800
X-235900Y107300
X-213250Y077750
X-183900Y108900
X-173900Y077050
M30
