*
G04 Mass Parameters ***
*
G04 Image ***
*
%IND:\ORCAD_PCB\UNIVERSAL SERVO DRIVER V6_1\UNIVERSAL_SERVO_DRIVER_VERSION6.SSB*%
%ICAS*%
%MOIN*%
%IPPOS*%
%ASAXBY*%
G74*%FSLAN2X34Y34*%
*
G04 Aperture Definitions ***
*
%ADD10C,0.0620*%
%ADD11R,0.0609X0.0609*%
%ADD12R,0.0500X0.0500*%
%ADD13C,0.0520*%
%ADD14R,0.0520X0.0520*%
%ADD15C,0.1000*%
%ADD16R,0.1000X0.0640*%
%ADD17R,0.4000X0.2750*%
%ADD18R,0.2000X0.0600*%
%ADD19O,0.2000X0.1500*%
%ADD20R,0.0480X0.0760*%
%ADD21O,0.1100X0.1300*%
%ADD22R,0.1100X0.1100*%
%ADD23C,0.0580*%
%ADD24R,0.0580X0.0580*%
%ADD25C,0.1500*%
%ADD26R,0.2750X0.4000*%
%ADD27R,0.0600X0.2000*%
%ADD28R,0.0590X0.1120*%
%ADD29R,0.0240X0.0900*%
%ADD30R,0.1280X0.1100*%
%ADD31R,0.0370X0.1100*%
%ADD32C,0.0120*%
%ADD33C,0.0100*%
%ADD34C,0.0180*%
%ADD35C,0.0300*%
%ADD36C,0.0400*%
%ADD37C,0.0350*%
%ADD38C,0.0500*%
%ADD39C,0.0150*%
%ADD40C,0.0600*%
%ADD41C,0.1200*%
%ADD42C,0.0200*%
%ADD43C,0.0300*%
%ADD44C,0.0160*%
%ADD45C,0.0250*%
%ADD46C,0.0080*%
%ADD47C,0.0609*%
%ADD48R,0.0630X0.0709*%
%ADD49R,0.0500X0.0300*%
%ADD50R,0.1000X0.1051*%
%ADD51R,0.1120X0.0590*%
%ADD52R,0.0180X0.0590*%
%ADD53R,0.0590X0.0180*%
%ADD54R,0.1100X0.1280*%
%ADD55R,0.1100X0.0370*%
%ADD56C,0.0669*%
%ADD57C,0.0660*%
%ADD58C,0.0787*%
%ADD59R,0.1000X0.1000*%
%ADD60C,0.1050*%
%ADD61C,0.0650*%
%ADD62R,0.0220X0.0630*%
%ADD63R,0.0630X0.0220*%
%ADD64C,0.0070*%
%ADD65C,0.0060*%
%ADD66C,0.0024*%
%ADD67C,0.0118*%
%ADD68C,0.0030*%
%ADD69C,0.0040*%
%ADD70R,0.0120X0.0120*%
%ADD71C,0.0010*%
%ADD72C,0.0250*%
%ADD73C,0.1100*%
%ADD74C,0.0250*%
%ADD75C,0.0050*%
*
G04 Plot Data ***
*
G54D46*
G01X-0211211Y0098806D02*
X-0211044D01*
X-0211017Y0098861D01*
Y0098917D01*
X-0211044Y0098972D01*
X-0211211D01*
X-0211239Y0098917D01*
Y0098861D01*
X-0211128Y0098639D01*
X-0210829D02*
X-0210718D01*
X-0210774D02*
Y0098972D01*
X-0210718Y0098917D01*
X-0210281Y0098639D02*
Y0098972D01*
X-0210253Y0098639D02*
X-0210419D01*
X-0210475Y0098750D01*
Y0098861D01*
X-0210419Y0098972D01*
X-0210253D01*
X-0200956Y0098639D02*
X-0200900Y0098694D01*
X-0200872Y0098750D01*
Y0098861D01*
X-0200900Y0098917D01*
X-0200956Y0098972D01*
X-0201011D01*
X-0201067Y0098917D01*
X-0201095Y0098861D01*
Y0098750D01*
X-0201067Y0098694D01*
X-0201011Y0098639D01*
X-0200956D01*
X-0200685D02*
X-0200463D01*
X-0200685Y0098861D01*
Y0098917D01*
X-0200657Y0098972D01*
X-0200491D01*
X-0200463Y0098917D01*
X-0200081Y0098639D02*
Y0098972D01*
X-0200053Y0098639D02*
X-0200219D01*
X-0200275Y0098750D01*
Y0098861D01*
X-0200219Y0098972D01*
X-0200053D01*
G54D65*
G01X-0220125Y0099795D02*
X-0220069Y0099850D01*
X-0220041Y0099906D01*
Y0100017D01*
X-0220069Y0100073D01*
X-0220125Y0100128D01*
X-0220180D01*
X-0220236Y0100073D01*
X-0220264Y0100017D01*
Y0099906D01*
X-0220236Y0099850D01*
X-0220180Y0099795D01*
X-0220125D01*
X-0219672Y0099850D02*
X-0219727Y0099795D01*
X-0219838D01*
X-0219894Y0099850D01*
Y0099906D01*
X-0219783Y0100017D01*
X-0219894Y0100128D01*
X-0219672D01*
X-0219441Y0099962D02*
X-0219524Y0099795D01*
X-0219302Y0099962D02*
X-0219469D01*
X-0219524Y0100017D01*
Y0100073D01*
X-0219469Y0100128D01*
X-0219302D01*
Y0099795D01*
X-0209708Y0099695D02*
X-0209597D01*
X-0209652D02*
Y0100028D01*
X-0209597Y0099973D01*
X-0209172Y0099750D02*
X-0209227Y0099695D01*
X-0209338D01*
X-0209394Y0099750D01*
Y0099806D01*
X-0209283Y0099917D01*
X-0209394Y0100028D01*
X-0209172D01*
X-0208941Y0099862D02*
X-0209024Y0099695D01*
X-0208802Y0099862D02*
X-0208969D01*
X-0209024Y0099917D01*
Y0099973D01*
X-0208969Y0100028D01*
X-0208802D01*
Y0099695D01*
X-0199664D02*
X-0199441D01*
X-0199664Y0099917D01*
Y0099973D01*
X-0199636Y0100028D01*
X-0199469D01*
X-0199441Y0099973D01*
X-0199072Y0099750D02*
X-0199127Y0099695D01*
X-0199238D01*
X-0199294Y0099750D01*
Y0099806D01*
X-0199183Y0099917D01*
X-0199294Y0100028D01*
X-0199072D01*
X-0198841Y0099862D02*
X-0198924Y0099695D01*
X-0198702Y0099862D02*
X-0198869D01*
X-0198924Y0099917D01*
Y0099973D01*
X-0198869Y0100028D01*
X-0198702D01*
Y0099695D01*
X-0222445Y0081436D02*
Y0081659D01*
X-0222667Y0081436D01*
X-0222723D01*
X-0222778Y0081464D01*
Y0081631D01*
X-0222723Y0081659D01*
X-0222556Y0081806D02*
Y0082028D01*
X-0222778Y0081917D01*
Y0081862D01*
X-0222445D01*
X-0222500Y0082176D02*
X-0222445Y0082204D01*
Y0082370D01*
X-0222500Y0082398D01*
X-0222723D01*
X-0222778Y0082370D01*
Y0082204D01*
X-0222723Y0082176D01*
X-0221531Y0098806D02*
X-0221559Y0098861D01*
Y0098917D01*
X-0221531Y0098972D01*
X-0221364D01*
X-0221336Y0098917D01*
Y0098861D01*
X-0221364Y0098806D01*
X-0221531D01*
X-0221559Y0098750D01*
Y0098694D01*
X-0221531Y0098639D01*
X-0221364D01*
X-0221336Y0098694D01*
Y0098750D01*
X-0221364Y0098806D01*
X-0221189Y0098639D02*
X-0221078D01*
X-0221133D02*
Y0098972D01*
X-0221078Y0098917D01*
X-0220681Y0098639D02*
Y0098972D01*
X-0220653Y0098639D02*
X-0220819D01*
X-0220875Y0098750D01*
Y0098861D01*
X-0220819Y0098972D01*
X-0220653D01*
X-0197906Y0097759D02*
Y0097537D01*
X-0197684Y0097648D01*
Y0097703D01*
X-0198018D01*
Y0097389D02*
Y0097278D01*
Y0097334D02*
X-0197684D01*
X-0197740Y0097278D01*
X-0197851Y0096992D02*
X-0198018Y0097076D01*
X-0197851Y0096853D02*
Y0097020D01*
X-0197795Y0097076D01*
X-0197740D01*
X-0197684Y0097020D01*
Y0096853D01*
X-0198018D01*
X-0200767Y0080020D02*
X-0200823Y0079964D01*
X-0200934D01*
X-0200990Y0080020D01*
Y0080076D01*
X-0200878Y0080187D01*
X-0200990Y0080298D01*
X-0200767D01*
X-0200620Y0079964D02*
X-0200509D01*
X-0200565D02*
Y0080298D01*
X-0200509Y0080242D01*
X-0200223Y0080131D02*
X-0200306Y0079964D01*
X-0200084Y0080131D02*
X-0200250D01*
X-0200306Y0080187D01*
Y0080242D01*
X-0200250Y0080298D01*
X-0200084D01*
Y0079964D01*
X-0203557Y0109634D02*
X-0203501Y0109690D01*
X-0203473Y0109746D01*
Y0109857D01*
X-0203501Y0109912D01*
X-0203557Y0109968D01*
X-0203612D01*
X-0203668Y0109912D01*
X-0203696Y0109857D01*
Y0109746D01*
X-0203668Y0109690D01*
X-0203612Y0109634D01*
X-0203557D01*
X-0203326D02*
X-0203104D01*
X-0203326Y0109857D01*
Y0109912D01*
X-0203298Y0109968D01*
X-0203131D01*
X-0203104Y0109912D01*
X-0202873Y0109801D02*
X-0202956Y0109634D01*
X-0202734Y0109801D02*
X-0202900D01*
X-0202956Y0109857D01*
Y0109912D01*
X-0202900Y0109968D01*
X-0202734D01*
Y0109634D01*
X-0218606Y0097745D02*
Y0097523D01*
X-0218384Y0097634D01*
Y0097689D01*
X-0218718D01*
X-0218551Y0097292D02*
X-0218718Y0097376D01*
X-0218551Y0097153D02*
Y0097320D01*
X-0218495Y0097376D01*
X-0218440D01*
X-0218384Y0097320D01*
Y0097153D01*
X-0218718D01*
X-0217162Y0089723D02*
X-0217218Y0089751D01*
Y0089917D01*
X-0217162Y0089945D01*
X-0217051D01*
X-0216995Y0089889D01*
Y0089723D01*
X-0216884D01*
Y0089945D01*
X-0217051Y0089492D02*
X-0217218Y0089576D01*
X-0217051Y0089353D02*
Y0089520D01*
X-0216995Y0089576D01*
X-0216940D01*
X-0216884Y0089520D01*
Y0089353D01*
X-0217218D01*
X-0210848Y0080131D02*
X-0210876Y0080187D01*
Y0080242D01*
X-0210848Y0080298D01*
X-0210681D01*
X-0210654Y0080242D01*
Y0080187D01*
X-0210681Y0080131D01*
X-0210848D01*
X-0210876Y0080076D01*
Y0080020D01*
X-0210848Y0079964D01*
X-0210681D01*
X-0210654Y0080020D01*
Y0080076D01*
X-0210681Y0080131D01*
X-0210423D02*
X-0210506Y0079964D01*
X-0210284Y0080131D02*
X-0210450D01*
X-0210506Y0080187D01*
Y0080242D01*
X-0210450Y0080298D01*
X-0210284D01*
Y0079964D01*
X-0208051Y0097417D02*
Y0097251D01*
X-0207995Y0097223D01*
X-0207940D01*
X-0207884Y0097251D01*
Y0097417D01*
X-0207940Y0097445D01*
X-0207995D01*
X-0208218Y0097334D01*
X-0208051Y0096992D02*
X-0208218Y0097076D01*
X-0208051Y0096853D02*
Y0097020D01*
X-0207995Y0097076D01*
X-0207940D01*
X-0207884Y0097020D01*
Y0096853D01*
X-0208218D01*
X-0206918Y0089720D02*
X-0206862Y0089665D01*
X-0206806Y0089637D01*
X-0206695D01*
X-0206640Y0089665D01*
X-0206584Y0089720D01*
Y0089776D01*
X-0206640Y0089831D01*
X-0206695Y0089859D01*
X-0206806D01*
X-0206862Y0089831D01*
X-0206918Y0089776D01*
Y0089720D01*
Y0089489D02*
Y0089378D01*
Y0089434D02*
X-0206584D01*
X-0206640Y0089378D01*
X-0206751Y0089092D02*
X-0206918Y0089176D01*
X-0206751Y0088953D02*
Y0089120D01*
X-0206695Y0089176D01*
X-0206640D01*
X-0206584Y0089120D01*
Y0088953D01*
X-0206918D01*
X-0213712Y0109621D02*
X-0213740Y0109677D01*
Y0109732D01*
X-0213712Y0109788D01*
X-0213545D01*
X-0213517Y0109732D01*
Y0109677D01*
X-0213545Y0109621D01*
X-0213712D01*
X-0213740Y0109566D01*
Y0109510D01*
X-0213712Y0109454D01*
X-0213545D01*
X-0213517Y0109510D01*
Y0109566D01*
X-0213545Y0109621D01*
X-0213370Y0109454D02*
X-0213259D01*
X-0213315D02*
Y0109788D01*
X-0213259Y0109732D01*
X-0212973Y0109621D02*
X-0213056Y0109454D01*
X-0212834Y0109621D02*
X-0213000D01*
X-0213056Y0109677D01*
Y0109732D01*
X-0213000Y0109788D01*
X-0212834D01*
Y0109454D01*
X-0215712Y0109601D02*
X-0215545D01*
X-0215517Y0109657D01*
Y0109712D01*
X-0215545Y0109768D01*
X-0215712D01*
X-0215740Y0109712D01*
Y0109657D01*
X-0215628Y0109434D01*
X-0215370D02*
X-0215259D01*
X-0215315D02*
Y0109768D01*
X-0215259Y0109712D01*
X-0214973Y0109601D02*
X-0215056Y0109434D01*
X-0214834Y0109601D02*
X-0215000D01*
X-0215056Y0109657D01*
Y0109712D01*
X-0215000Y0109768D01*
X-0214834D01*
Y0109434D01*
X-0196662Y0089637D02*
X-0196718Y0089665D01*
Y0089831D01*
X-0196662Y0089859D01*
X-0196551D01*
X-0196495Y0089803D01*
Y0089637D01*
X-0196384D01*
Y0089859D01*
X-0196718Y0089489D02*
Y0089378D01*
Y0089434D02*
X-0196384D01*
X-0196440Y0089378D01*
X-0196551Y0089092D02*
X-0196718Y0089176D01*
X-0196551Y0088953D02*
Y0089120D01*
X-0196495Y0089176D01*
X-0196440D01*
X-0196384Y0089120D01*
Y0088953D01*
X-0196718D01*
X-0209000Y0081562D02*
X-0209166D01*
X-0209194Y0081506D01*
Y0081450D01*
X-0209166Y0081395D01*
X-0209000D01*
X-0208972Y0081450D01*
Y0081506D01*
X-0209083Y0081728D01*
X-0208824Y0081450D02*
X-0208796Y0081395D01*
X-0208630D01*
X-0208602Y0081450D01*
Y0081673D01*
X-0208630Y0081728D01*
X-0208796D01*
X-0208824Y0081673D01*
X-0202016Y0080163D02*
X-0202183Y0080496D01*
X-0201961D01*
X-0201813Y0080274D02*
X-0201591D01*
X-0201702Y0080496D01*
X-0201757D01*
Y0080163D01*
X-0201444Y0080219D02*
X-0201416Y0080163D01*
X-0201249D01*
X-0201221Y0080219D01*
Y0080441D01*
X-0201249Y0080496D01*
X-0201416D01*
X-0201444Y0080441D01*
X-0219072Y0081450D02*
X-0219127Y0081395D01*
X-0219238D01*
X-0219294Y0081450D01*
Y0081506D01*
X-0219183Y0081617D01*
X-0219294Y0081728D01*
X-0219072D01*
X-0218924Y0081450D02*
X-0218896Y0081395D01*
X-0218730D01*
X-0218702Y0081450D01*
Y0081673D01*
X-0218730Y0081728D01*
X-0218896D01*
X-0218924Y0081673D01*
X-0199066Y0081562D02*
X-0198900D01*
X-0198872Y0081617D01*
Y0081673D01*
X-0198900Y0081728D01*
X-0199066D01*
X-0199094Y0081673D01*
Y0081617D01*
X-0198983Y0081395D01*
X-0198724Y0081450D02*
X-0198696Y0081395D01*
X-0198530D01*
X-0198502Y0081450D01*
Y0081673D01*
X-0198530Y0081728D01*
X-0198696D01*
X-0198724Y0081673D01*
X-0189345Y0080231D02*
X-0189400Y0080287D01*
X-0189456Y0080315D01*
X-0189567D01*
X-0189623Y0080287D01*
X-0189678Y0080231D01*
Y0080176D01*
X-0189623Y0080120D01*
X-0189567Y0080092D01*
X-0189456D01*
X-0189400Y0080120D01*
X-0189345Y0080176D01*
Y0080231D01*
Y0080462D02*
Y0080573D01*
Y0080517D02*
X-0189678D01*
X-0189623Y0080573D01*
X-0189400Y0080776D02*
X-0189345Y0080804D01*
Y0080970D01*
X-0189400Y0080998D01*
X-0189623D01*
X-0189678Y0080970D01*
Y0080804D01*
X-0189623Y0080776D01*
X-0210853Y0109882D02*
X-0210742D01*
X-0210798D02*
Y0110216D01*
X-0210742Y0110160D01*
X-0210539Y0109882D02*
X-0210428D01*
X-0210484D02*
Y0110216D01*
X-0210428Y0110160D01*
X-0210226Y0109938D02*
X-0210198Y0109882D01*
X-0210031D01*
X-0210003Y0109938D01*
Y0110160D01*
X-0210031Y0110216D01*
X-0210198D01*
X-0210226Y0110160D01*
X-0200659Y0109882D02*
X-0200437D01*
X-0200659Y0110105D01*
Y0110160D01*
X-0200631Y0110216D01*
X-0200465D01*
X-0200437Y0110160D01*
X-0200289Y0109882D02*
X-0200178D01*
X-0200234D02*
Y0110216D01*
X-0200178Y0110160D01*
X-0199976Y0109938D02*
X-0199948Y0109882D01*
X-0199781D01*
X-0199753Y0109938D01*
Y0110160D01*
X-0199781Y0110216D01*
X-0199948D01*
X-0199976Y0110160D01*
X-0183213Y0087612D02*
X-0183380D01*
X-0183408Y0087556D01*
Y0087500D01*
X-0183380Y0087445D01*
X-0183213D01*
X-0183185Y0087500D01*
Y0087556D01*
X-0183296Y0087778D01*
X-0183038Y0087445D02*
X-0182927D01*
X-0182983D02*
Y0087778D01*
X-0182927Y0087723D01*
X-0182724Y0087500D02*
X-0182696Y0087445D01*
X-0182530D01*
X-0182502Y0087500D01*
Y0087723D01*
X-0182530Y0087778D01*
X-0182696D01*
X-0182724Y0087723D01*
X-0182320Y0081738D02*
X-0182292Y0081683D01*
Y0081627D01*
X-0182320Y0081572D01*
X-0182487D01*
X-0182515Y0081627D01*
Y0081683D01*
X-0182487Y0081738D01*
X-0182320D01*
X-0182292Y0081794D01*
Y0081850D01*
X-0182320Y0081905D01*
X-0182487D01*
X-0182515Y0081850D01*
Y0081794D01*
X-0182487Y0081738D01*
X-0182662Y0081905D02*
X-0182773D01*
X-0182717D02*
Y0081572D01*
X-0182773Y0081627D01*
X-0182976Y0081850D02*
X-0183004Y0081905D01*
X-0183170D01*
X-0183198Y0081850D01*
Y0081627D01*
X-0183170Y0081572D01*
X-0183004D01*
X-0182976Y0081627D01*
X-0178130Y0087712D02*
X-0177963D01*
X-0177935Y0087767D01*
Y0087823D01*
X-0177963Y0087878D01*
X-0178130D01*
X-0178158Y0087823D01*
Y0087767D01*
X-0178046Y0087545D01*
X-0177788D02*
X-0177677D01*
X-0177733D02*
Y0087878D01*
X-0177677Y0087823D01*
X-0177474Y0087600D02*
X-0177446Y0087545D01*
X-0177280D01*
X-0177252Y0087600D01*
Y0087823D01*
X-0177280Y0087878D01*
X-0177446D01*
X-0177474Y0087823D01*
X-0177092Y0082105D02*
X-0177203D01*
X-0177148D02*
Y0081772D01*
X-0177203Y0081827D01*
X-0177406Y0082105D02*
X-0177628D01*
X-0177406Y0081883D01*
Y0081827D01*
X-0177434Y0081772D01*
X-0177600D01*
X-0177628Y0081827D01*
X-0177776Y0082050D02*
X-0177804Y0082105D01*
X-0177970D01*
X-0177998Y0082050D01*
Y0081827D01*
X-0177970Y0081772D01*
X-0177804D01*
X-0177776Y0081827D01*
X-0220823Y0080019D02*
X-0220879Y0079963D01*
X-0220990D01*
X-0221046Y0080019D01*
Y0080075D01*
X-0220934Y0080186D01*
X-0221046Y0080297D01*
X-0220823D01*
X-0220593Y0080130D02*
X-0220676Y0079963D01*
X-0220454Y0080130D02*
X-0220620D01*
X-0220676Y0080186D01*
Y0080241D01*
X-0220620Y0080297D01*
X-0220454D01*
Y0079963D01*
X-0235701Y0096347D02*
X-0235645Y0096375D01*
X-0235590D01*
X-0235534Y0096347D01*
Y0096180D01*
X-0235590Y0096152D01*
X-0235645D01*
X-0235701Y0096180D01*
Y0096347D01*
X-0235756Y0096375D01*
X-0235812D01*
X-0235868Y0096347D01*
Y0096180D01*
X-0235812Y0096152D01*
X-0235756D01*
X-0235701Y0096180D01*
X-0235868Y0096005D02*
Y0095783D01*
X-0235645Y0096005D01*
X-0235590D01*
X-0235534Y0095977D01*
Y0095811D01*
X-0235590Y0095783D01*
X-0235812Y0095635D02*
X-0235868Y0095607D01*
Y0095441D01*
X-0235812Y0095413D01*
X-0235590D01*
X-0235534Y0095441D01*
Y0095607D01*
X-0235590Y0095635D01*
X-0235699Y0093663D02*
Y0093830D01*
X-0235755Y0093857D01*
X-0235810D01*
X-0235866Y0093830D01*
Y0093663D01*
X-0235810Y0093635D01*
X-0235755D01*
X-0235532Y0093746D01*
Y0094005D02*
Y0094227D01*
X-0235755Y0094005D01*
X-0235810D01*
X-0235866Y0094033D01*
Y0094199D01*
X-0235810Y0094227D01*
X-0235588Y0094374D02*
X-0235532Y0094402D01*
Y0094569D01*
X-0235588Y0094597D01*
X-0235810D01*
X-0235866Y0094569D01*
Y0094402D01*
X-0235810Y0094374D01*
X-0212450Y0081559D02*
X-0212395Y0081503D01*
Y0081392D01*
X-0212450Y0081336D01*
X-0212506D01*
X-0212617Y0081448D01*
X-0212728Y0081336D01*
Y0081559D01*
X-0212506Y0081706D02*
Y0081928D01*
X-0212728Y0081817D01*
Y0081762D01*
X-0212395D01*
X-0212450Y0082076D02*
X-0212395Y0082104D01*
Y0082270D01*
X-0212450Y0082298D01*
X-0212673D01*
X-0212728Y0082270D01*
Y0082104D01*
X-0212673Y0082076D01*
X-0222111Y0080069D02*
X-0222139Y0080013D01*
X-0222305D01*
X-0222333Y0080069D01*
Y0080180D01*
X-0222277Y0080235D01*
X-0222111D01*
Y0080346D01*
X-0222333D01*
X-0221963Y0080124D02*
X-0221741D01*
X-0221852Y0080346D01*
X-0221907D01*
Y0080013D01*
X-0221594Y0080069D02*
X-0221566Y0080013D01*
X-0221399D01*
X-0221371Y0080069D01*
Y0080291D01*
X-0221399Y0080346D01*
X-0221566D01*
X-0221594Y0080291D01*
X-0212239Y0080280D02*
X-0212405D01*
X-0212433Y0080224D01*
Y0080169D01*
X-0212405Y0080113D01*
X-0212239D01*
X-0212211Y0080169D01*
Y0080224D01*
X-0212322Y0080446D01*
X-0212063Y0080224D02*
X-0211841D01*
X-0211952Y0080446D01*
X-0212007D01*
Y0080113D01*
X-0211694Y0080169D02*
X-0211666Y0080113D01*
X-0211499D01*
X-0211471Y0080169D01*
Y0080391D01*
X-0211499Y0080446D01*
X-0211666D01*
X-0211694Y0080391D01*
X-0202326Y0081416D02*
Y0081639D01*
X-0202548Y0081528D01*
Y0081472D01*
X-0202215D01*
X-0202326Y0081786D02*
Y0082008D01*
X-0202548Y0081897D01*
Y0081842D01*
X-0202215D01*
X-0202270Y0082156D02*
X-0202215Y0082183D01*
Y0082350D01*
X-0202270Y0082378D01*
X-0202493D01*
X-0202548Y0082350D01*
Y0082183D01*
X-0202493Y0082156D01*
X-0205690Y0109534D02*
X-0205579D01*
X-0205634D02*
Y0109868D01*
X-0205579Y0109812D01*
X-0205376Y0109534D02*
X-0205154D01*
X-0205376Y0109757D01*
Y0109812D01*
X-0205348Y0109868D01*
X-0205181D01*
X-0205154Y0109812D01*
X-0204923Y0109701D02*
X-0205006Y0109534D01*
X-0204784Y0109701D02*
X-0204950D01*
X-0205006Y0109757D01*
Y0109812D01*
X-0204950Y0109868D01*
X-0204784D01*
Y0109534D01*
X-0220100Y0082690D02*
X-0220256D01*
X-0221300Y0080510D02*
X-0221144D01*
X-0220700Y0083340D02*
Y0082840D01*
X-0220450Y0083240D02*
X-0220950D01*
Y0082940D02*
X-0220700Y0083240D01*
X-0220900Y0082940D02*
X-0220700Y0083240D01*
X-0220850Y0082940D02*
X-0220700Y0083240D01*
X-0220800Y0082940D02*
X-0220700Y0083240D01*
X-0220750Y0082940D02*
X-0220700Y0083240D01*
X-0220450Y0082940D02*
X-0220700Y0083240D01*
X-0220500Y0082940D02*
X-0220700Y0083240D01*
X-0220550Y0082940D02*
X-0220700Y0083240D01*
X-0220600Y0082940D02*
X-0220700Y0083240D01*
X-0220650Y0082940D02*
X-0220700Y0083240D01*
X-0220450Y0082940D02*
X-0220950D01*
X-0220100Y0080510D02*
Y0082690D01*
X-0220256Y0080510D02*
X-0220100D01*
X-0221300Y0082690D02*
Y0080510D01*
X-0221144Y0082690D02*
X-0221300D01*
X-0209900D02*
X-0210056D01*
X-0211100Y0080510D02*
X-0210944D01*
X-0218880Y0099575D02*
Y0098825D01*
X-0220480D01*
Y0099575D01*
X-0218880D01*
X-0221144Y0079919D02*
X-0220395D01*
Y0078319D01*
X-0221144D01*
Y0079919D01*
X-0219575Y0098320D02*
X-0218825D01*
Y0096720D01*
X-0219575D01*
Y0098320D01*
X-0235325Y0096680D02*
X-0234575D01*
Y0095080D01*
X-0235325D01*
Y0096680D01*
X-0234575Y0093130D02*
X-0235325D01*
Y0094730D01*
X-0234575D01*
Y0093130D01*
X-0197980Y0082575D02*
Y0081825D01*
X-0199580D01*
Y0082575D01*
X-0197980D01*
X-0200250Y0082940D02*
X-0200400Y0083240D01*
X-0218075Y0090420D02*
X-0217325D01*
Y0088820D01*
X-0218075D01*
Y0090420D01*
X-0210975Y0079920D02*
X-0210225D01*
Y0078320D01*
X-0210975D01*
Y0079920D01*
X-0209175Y0098320D02*
X-0208425D01*
Y0096720D01*
X-0209175D01*
Y0098320D01*
X-0207875Y0090420D02*
X-0207125D01*
Y0088820D01*
X-0207875D01*
Y0090420D01*
X-0210500Y0083340D02*
Y0082840D01*
X-0210250Y0083240D02*
X-0210750D01*
Y0082940D02*
X-0210500Y0083240D01*
X-0199435Y0108640D02*
X-0201265D01*
Y0107360D02*
X-0199435D01*
X-0200300Y0082940D02*
X-0200400Y0083240D01*
X-0200350Y0082940D02*
X-0200400Y0083240D01*
X-0200150Y0082940D02*
X-0200650D01*
X-0199800Y0080510D02*
Y0082690D01*
X-0199956Y0080510D02*
X-0199800D01*
X-0201000Y0082690D02*
Y0080510D01*
X-0200844Y0082690D02*
X-0201000D01*
X-0199800D02*
X-0199956D01*
X-0201000Y0080510D02*
X-0200844D01*
X-0200400Y0083340D02*
Y0082840D01*
X-0200150Y0083240D02*
X-0200650D01*
Y0082940D02*
X-0200400Y0083240D01*
X-0200600Y0082940D02*
X-0200400Y0083240D01*
X-0200550Y0082940D02*
X-0200400Y0083240D01*
X-0200500Y0082940D02*
X-0200400Y0083240D01*
X-0200450Y0082940D02*
X-0200400Y0083240D01*
X-0200150Y0082940D02*
X-0200400Y0083240D01*
X-0200200Y0082940D02*
X-0200400Y0083240D01*
X-0177630Y0083533D02*
Y0083380D01*
X-0176070Y0086120D02*
X-0177630D01*
X-0176070Y0085521D02*
Y0086120D01*
X-0177630Y0083380D02*
X-0176070D01*
X-0177630Y0084434D02*
Y0084165D01*
Y0085335D02*
Y0085066D01*
Y0086120D02*
Y0085967D01*
X-0176070Y0083380D02*
Y0083979D01*
X-0182980Y0083483D02*
Y0083330D01*
X-0181420Y0086070D02*
X-0182980D01*
X-0181420Y0085471D02*
Y0086070D01*
X-0182980Y0083330D02*
X-0181420D01*
X-0182980Y0084384D02*
Y0084115D01*
Y0085285D02*
Y0085016D01*
Y0086070D02*
Y0085917D01*
X-0181420Y0083330D02*
Y0083929D01*
X-0209535Y0108640D02*
X-0211365D01*
Y0107360D02*
X-0209535D01*
X-0210700Y0082940D02*
X-0210500Y0083240D01*
X-0210650Y0082940D02*
X-0210500Y0083240D01*
X-0210600Y0082940D02*
X-0210500Y0083240D01*
X-0216100Y0106620D02*
Y0109360D01*
X-0214500D01*
Y0106620D01*
X-0216100D01*
X-0201375Y0078430D02*
X-0202125D01*
Y0080030D01*
X-0201375D01*
Y0078430D01*
X-0222225Y0082620D02*
X-0221475D01*
Y0081020D01*
X-0222225D01*
Y0082620D01*
X-0198280Y0099575D02*
Y0098825D01*
X-0199880D01*
Y0099575D01*
X-0198280D01*
X-0208480D02*
Y0098825D01*
X-0210080D01*
Y0099575D01*
X-0208480D01*
X-0190525Y0081420D02*
X-0189775D01*
Y0079820D01*
X-0190525D01*
Y0081420D01*
X-0211270Y0108925D02*
Y0109675D01*
X-0209670D01*
Y0108925D01*
X-0211270D01*
X-0201220D02*
Y0109675D01*
X-0199620D01*
Y0108925D01*
X-0201220D01*
X-0182080Y0087325D02*
Y0086575D01*
X-0183680D01*
Y0087325D01*
X-0182080D01*
X-0183720Y0082125D02*
Y0082875D01*
X-0182120D01*
Y0082125D01*
X-0183720D01*
X-0176730Y0087425D02*
Y0086675D01*
X-0178330D01*
Y0087425D01*
X-0176730D01*
X-0211525Y0078380D02*
X-0212275D01*
Y0079980D01*
X-0211525D01*
Y0078380D01*
X-0221425Y0078280D02*
X-0222175D01*
Y0079880D01*
X-0221425D01*
Y0078280D01*
X-0204000Y0106620D02*
Y0109360D01*
X-0202400D01*
Y0106620D01*
X-0204000D01*
X-0210550Y0082940D02*
X-0210500Y0083240D01*
X-0210250Y0082940D02*
X-0210500Y0083240D01*
X-0202095Y0082600D02*
X-0201345D01*
Y0081000D01*
X-0202095D01*
Y0082600D01*
X-0212275Y0082620D02*
X-0211525D01*
Y0081020D01*
X-0212275D01*
Y0082620D01*
X-0178320Y0082225D02*
Y0082975D01*
X-0176720D01*
Y0082225D01*
X-0178320D01*
X-0205850Y0106620D02*
Y0109360D01*
X-0204250D01*
Y0106620D01*
X-0205850D01*
X-0214200Y0106640D02*
Y0109380D01*
X-0212600D01*
Y0106640D01*
X-0214200D01*
X-0210300Y0082940D02*
X-0210500Y0083240D01*
X-0210350Y0082940D02*
X-0210500Y0083240D01*
X-0210400Y0082940D02*
X-0210500Y0083240D01*
X-0210450Y0082940D02*
X-0210500Y0083240D01*
X-0210250Y0082940D02*
X-0210750D01*
X-0209900Y0080510D02*
Y0082690D01*
X-0210056Y0080510D02*
X-0209900D01*
X-0211100Y0082690D02*
Y0080510D01*
X-0210944Y0082690D02*
X-0211100D01*
X-0218280Y0082575D02*
Y0081825D01*
X-0219880D01*
Y0082575D01*
X-0218280D01*
X-0208080D02*
Y0081825D01*
X-0209680D01*
Y0082575D01*
X-0208080D01*
X-0190760Y0079585D02*
Y0081415D01*
X-0192040D02*
Y0079585D01*
X-0200875Y0079920D02*
X-0200125D01*
Y0078320D01*
X-0200875D01*
Y0079920D01*
X-0198975Y0098320D02*
X-0198225D01*
Y0096720D01*
X-0198975D01*
Y0098320D01*
X-0197675Y0090420D02*
X-0196925D01*
Y0088820D01*
X-0197675D01*
Y0090420D01*
G01X-0202015Y0107587D02*
G03X-0201986Y0107616I0000000J0000029D01*
G01X-0202044D02*
G03X-0202015Y0107587I0000029J0000000D01*
Y0107646D02*
G03X-0202045Y0107616I0000000J0000030D01*
G01X-0201985D02*
G03X-0202015Y0107646I0000030J0000000D01*
G01X-0178285Y0082880D02*
G03X-0178235Y0082930I0000000J0000050D01*
G01X-0178335D02*
G03X-0178285Y0082880I0000050J0000000D01*
Y0082980D02*
G03X-0178335Y0082930I0000000J0000050D01*
G01X-0178235D02*
G03X-0178285Y0082980I0000050J0000000D01*
G01X-0183635Y0082830D02*
G03X-0183585Y0082880I0000000J0000050D01*
G01X-0183685D02*
G03X-0183635Y0082830I0000050J0000000D01*
Y0082930D02*
G03X-0183685Y0082880I0000000J0000050D01*
G01X-0183585D02*
G03X-0183635Y0082930I0000050J0000000D01*
G01X-0212115Y0107587D02*
G03X-0212086Y0107616I0000000J0000029D01*
G01X-0212144D02*
G03X-0212115Y0107587I0000029J0000000D01*
Y0107646D02*
G03X-0212145Y0107616I0000000J0000030D01*
G01X-0212085D02*
G03X-0212115Y0107646I0000030J0000000D01*
G01X-0191784Y0082135D02*
G03X-0191754Y0082165I0000000J0000030D01*
G01X-0191814D02*
G03X-0191784Y0082135I0000030J0000000D01*
Y0082195D02*
G03X-0191814Y0082165I0000000J0000030D01*
G01X-0191754D02*
G03X-0191784Y0082195I0000030J0000000D01*
G54D68*
G01X-0184411Y0086160D02*
X-0184356Y0086104D01*
X-0184300Y0086076D01*
X-0184189D01*
X-0184133Y0086104D01*
X-0184078Y0086160D01*
Y0086215D01*
X-0184133Y0086271D01*
X-0184189Y0086299D01*
X-0184300D01*
X-0184356Y0086271D01*
X-0184411Y0086215D01*
Y0086160D01*
Y0085989D02*
Y0085878D01*
Y0085933D02*
X-0184078D01*
X-0184133Y0085878D01*
X-0184078Y0085735D02*
X-0184356D01*
X-0184411Y0085707D01*
Y0085541D01*
X-0184356Y0085513D01*
X-0184078D01*
X-0210502Y0106844D02*
X-0210530Y0106789D01*
X-0210697D01*
X-0210725Y0106844D01*
Y0106956D01*
X-0210669Y0107011D01*
X-0210502D01*
Y0107122D01*
X-0210725D01*
X-0210415D02*
Y0106844D01*
X-0210387Y0106789D01*
X-0210220D01*
X-0210193Y0106844D01*
Y0107122D01*
X-0200430Y0107056D02*
X-0200597D01*
X-0200625Y0107000D01*
Y0106944D01*
X-0200597Y0106889D01*
X-0200430D01*
X-0200402Y0106944D01*
Y0107000D01*
X-0200513Y0107222D01*
X-0200315D02*
Y0106944D01*
X-0200287Y0106889D01*
X-0200120D01*
X-0200093Y0106944D01*
Y0107222D01*
X-0178661Y0086293D02*
Y0086182D01*
Y0086237D02*
X-0178328D01*
X-0178383Y0086182D01*
X-0178661Y0086039D02*
Y0085928D01*
Y0085983D02*
X-0178328D01*
X-0178383Y0085928D01*
X-0178328Y0085785D02*
X-0178606D01*
X-0178661Y0085757D01*
Y0085591D01*
X-0178606Y0085563D01*
X-0178328D01*
X-0192400Y0080875D02*
Y0080652D01*
X-0192178Y0080763D01*
Y0080819D01*
X-0192511D01*
X-0192178Y0080565D02*
X-0192456D01*
X-0192511Y0080537D01*
Y0080370D01*
X-0192456Y0080343D01*
X-0192178D01*
G54D58*
X-0184250Y0096300D03*
Y0094300D03*
X-0175100Y0112450D03*
X-0173100D03*
X-0184250Y0103050D03*
Y0101050D03*
X-0175150Y0105300D03*
X-0173150D03*
G54D70*
X-0200400Y0098000D03*
X-0200360Y0097086D03*
X-0210600Y0098000D03*
X-0210560Y0097086D03*
X-0221000Y0098000D03*
X-0220960Y0097086D03*
M02*
