*
G04 Mass Parameters ***
*
G04 Image ***
*
%IND:\ORCAD_PCB\UNIVERSAL SERVO DRIVER V6_1\UNIVERSAL_SERVO_DRIVER_VERSION6.SMT*%
%ICAS*%
%MOIN*%
%IPPOS*%
%ASAXBY*%
G74*%FSLAN2X34Y34*%
*
G04 Aperture Definitions ***
*
%ADD10C,0.0620*%
%ADD11R,0.0609X0.0609*%
%ADD12R,0.0500X0.0500*%
%ADD13C,0.0520*%
%ADD14R,0.0520X0.0520*%
%ADD15C,0.1000*%
%ADD16R,0.1000X0.0640*%
%ADD17R,0.4000X0.2750*%
%ADD18R,0.2000X0.0600*%
%ADD19O,0.2000X0.1500*%
%ADD20R,0.0480X0.0760*%
%ADD21O,0.1100X0.1300*%
%ADD22R,0.1100X0.1100*%
%ADD23C,0.0580*%
%ADD24R,0.0580X0.0580*%
%ADD25C,0.1500*%
%ADD26R,0.2750X0.4000*%
%ADD27R,0.0600X0.2000*%
%ADD28R,0.0590X0.1120*%
%ADD29R,0.0240X0.0900*%
%ADD30R,0.1280X0.1100*%
%ADD31R,0.0370X0.1100*%
%ADD32C,0.0120*%
%ADD33C,0.0100*%
%ADD34C,0.0180*%
%ADD35C,0.0300*%
%ADD36C,0.0400*%
%ADD37C,0.0350*%
%ADD38C,0.0500*%
%ADD39C,0.0150*%
%ADD40C,0.0600*%
%ADD41C,0.1200*%
%ADD42C,0.0200*%
%ADD43C,0.0300*%
%ADD44C,0.0160*%
%ADD45C,0.0250*%
%ADD46C,0.0080*%
%ADD47C,0.0609*%
%ADD48R,0.0630X0.0709*%
%ADD49R,0.0500X0.0300*%
%ADD50R,0.1000X0.1051*%
%ADD51R,0.1120X0.0590*%
%ADD52R,0.0180X0.0590*%
%ADD53R,0.0590X0.0180*%
%ADD54R,0.1100X0.1280*%
%ADD55R,0.1100X0.0370*%
%ADD56C,0.0669*%
%ADD57C,0.0660*%
%ADD58C,0.0787*%
%ADD59R,0.1000X0.1000*%
%ADD60C,0.1050*%
%ADD61C,0.0650*%
%ADD62R,0.0220X0.0630*%
%ADD63R,0.0630X0.0220*%
%ADD64C,0.0070*%
%ADD65C,0.0060*%
%ADD66C,0.0024*%
%ADD67C,0.0118*%
%ADD68C,0.0030*%
%ADD69C,0.0040*%
%ADD70R,0.0120X0.0120*%
%ADD71C,0.0010*%
%ADD72C,0.0250*%
%ADD73C,0.1100*%
%ADD74C,0.0250*%
%ADD75C,0.0050*%
*
G04 Plot Data ***
*
G54D12*
X-0194350Y0085000D03*
Y0085840D03*
X-0185130Y0081030D03*
Y0081870D03*
X-0197480Y0079520D03*
Y0078680D03*
X-0198480Y0079520D03*
Y0078680D03*
X-0207700Y0079500D03*
Y0078660D03*
X-0208600Y0079500D03*
Y0078660D03*
X-0218000Y0079500D03*
Y0078660D03*
X-0218900Y0079500D03*
Y0078660D03*
X-0179150Y0089450D03*
Y0090290D03*
X-0177450Y0091700D03*
X-0178290D03*
X-0180150D03*
X-0179310D03*
X-0180200Y0089410D03*
Y0090250D03*
X-0180250Y0080850D03*
Y0081690D03*
Y0079900D03*
Y0079060D03*
X-0179250Y0079950D03*
Y0079110D03*
Y0080850D03*
Y0081690D03*
X-0196500Y0078700D03*
Y0079540D03*
X-0199420Y0079520D03*
Y0078680D03*
X-0206800Y0078660D03*
Y0079500D03*
X-0209500D03*
Y0078660D03*
X-0217000D03*
Y0079500D03*
X-0219820Y0079520D03*
Y0078680D03*
G54D13*
X-0180200Y0087050D03*
X-0185600Y0088800D03*
X-0185750Y0078000D03*
X-0172050Y0084750D03*
X-0185750Y0083800D03*
X-0178800Y0077350D03*
G54D14*
X-0180200Y0088050D03*
X-0185600Y0089800D03*
X-0185750Y0079000D03*
X-0172050Y0083750D03*
X-0185750Y0084800D03*
X-0177800Y0077350D03*
G54D15*
X-0184250Y0096300D03*
Y0094300D03*
X-0175100Y0112450D03*
X-0173100D03*
X-0184250Y0103050D03*
Y0101050D03*
X-0175150Y0105300D03*
X-0173150D03*
G54D16*
X-0191700Y0097000D03*
Y0095650D03*
X-0201900Y0097100D03*
Y0095750D03*
X-0212100Y0097100D03*
Y0095750D03*
G54D17*
X-0173700Y0089600D03*
X-0173400Y0080100D03*
G54D18*
X-0177200Y0090600D03*
Y0088600D03*
X-0176900Y0081100D03*
Y0079100D03*
G54D19*
X-0178967Y0103300D03*
Y0099300D03*
Y0096300D03*
Y0093300D03*
Y0115200D03*
Y0111200D03*
Y0108200D03*
Y0105200D03*
G54D20*
X-0186650Y0081350D03*
X-0187440D03*
G54D22*
X-0195450Y0113450D03*
X-0209490D03*
G54D23*
X-0237100Y0105350D03*
X-0192500Y0077200D03*
X-0193500D03*
G54D24*
X-0237100Y0104350D03*
X-0191500Y0077200D03*
G54D26*
X-0195100Y0093850D03*
X-0205300Y0093950D03*
X-0215500D03*
X-0195900Y0101950D03*
X-0206100D03*
X-0216400D03*
G54D27*
X-0196100Y0090100D03*
X-0194100D03*
X-0206300Y0090200D03*
X-0204300D03*
X-0216500D03*
X-0214500D03*
X-0196900Y0098200D03*
X-0194900D03*
X-0207100D03*
X-0205100D03*
X-0217400D03*
X-0215400D03*
G54D28*
X-0192200Y0084100D03*
X-0190520D03*
X-0192200Y0085900D03*
X-0190520D03*
G54D29*
X-0199250Y0081110D03*
X-0198750D03*
X-0198250D03*
X-0197750D03*
Y0083090D03*
X-0198250D03*
X-0198750D03*
X-0199250D03*
X-0209350Y0081110D03*
X-0208850D03*
X-0208350D03*
X-0207850D03*
Y0083090D03*
X-0208350D03*
X-0208850D03*
X-0209350D03*
X-0219540Y0081169D03*
X-0219040D03*
X-0218540D03*
X-0218040D03*
Y0083150D03*
X-0218540D03*
X-0219040D03*
X-0219540D03*
G54D30*
X-0182400Y0091655D03*
X-0182850Y0081255D03*
G54D31*
X-0183302Y0089445D03*
X-0182400D03*
X-0181498D03*
X-0183752Y0079045D03*
X-0182850D03*
X-0181948D03*
G54D56*
X-0237150Y0094450D03*
Y0093450D03*
Y0092450D03*
Y0091450D03*
Y0090450D03*
Y0089450D03*
Y0088450D03*
Y0087450D03*
Y0086450D03*
Y0085450D03*
Y0084450D03*
Y0083450D03*
Y0082450D03*
Y0081450D03*
Y0080450D03*
X-0223150D03*
Y0081450D03*
Y0082450D03*
Y0083450D03*
Y0084450D03*
Y0085450D03*
Y0086450D03*
Y0087450D03*
Y0088450D03*
Y0089450D03*
Y0090450D03*
Y0091450D03*
Y0092450D03*
Y0093450D03*
Y0094450D03*
Y0095450D03*
G54D57*
X-0237150D03*
G54D60*
X-0235900Y0107300D03*
X-0173900Y0077050D03*
X-0183900Y0108900D03*
X-0213250Y0077750D03*
X-0237250Y0077800D03*
G54D72*
X-0197300Y0090985D03*
X-0193290Y0097952D03*
X-0196062Y0098340D03*
X-0189600Y0082300D03*
X-0179200Y0082400D03*
X-0174400Y0087600D03*
X-0200900Y0115400D03*
X-0181200Y0081800D03*
X-0192470Y0082300D03*
X-0201700Y0078000D03*
X-0211900D03*
X-0201690Y0077988D03*
X-0195155Y0079746D03*
X-0215674Y0086296D03*
Y0079574D03*
X-0202000Y0109900D03*
X-0202100Y0106700D03*
X-0207932Y0107868D03*
X-0212200Y0106800D03*
X-0191556Y0078400D03*
X-0217000Y0108100D03*
X-0207913Y0107868D03*
X-0212213Y0109867D03*
X-0184300Y0085700D03*
Y0081600D03*
X-0182000Y0077800D03*
X-0216300Y0078900D03*
X-0195734Y0078883D03*
X-0206100Y0078900D03*
X-0219844Y0080195D03*
X-0205421Y0086260D03*
X-0205448Y0079567D03*
X-0209702Y0080200D03*
X-0195093Y0086300D03*
X-0189600Y0099700D03*
X-0199600Y0080200D03*
X-0192499Y0082300D03*
X-0196288Y0105302D03*
X-0206309Y0105300D03*
X-0191700Y0084100D03*
X-0182831Y0077700D03*
X-0197428Y0107872D03*
X-0197489D03*
X-0175700Y0081700D03*
X-0184500Y0077200D03*
X-0183302Y0087702D03*
X-0206300Y0098400D03*
X-0191900Y0109600D03*
X-0232700Y0095500D03*
X-0181200Y0082500D03*
X-0178900Y0087100D03*
X-0194350Y0084150D03*
X-0216608Y0098257D03*
X-0181200Y0079000D03*
X-0176400Y0081800D03*
X-0171900Y0091700D03*
X-0222000Y0077947D03*
X-0190165Y0087100D03*
X-0190000D03*
X-0203558Y0098017D03*
X-0208331Y0083956D03*
X-0218534Y0083960D03*
X-0191000Y0084100D03*
X-0177050Y0084750D03*
X-0184000Y0086900D03*
X-0190100Y0109100D03*
X-0229300Y0097700D03*
X-0209339Y0083916D03*
X-0199209Y0083959D03*
X-0219521Y0083951D03*
X-0208866Y0083932D03*
X-0234700Y0104400D03*
X-0187392Y0102009D03*
X-0198740Y0083989D03*
X-0218400Y0097900D03*
X-0181111Y0091792D03*
X-0208005Y0098027D03*
X-0195751Y0078874D03*
X-0198252Y0084022D03*
X-0197800Y0098000D03*
X-0198000Y0104300D03*
X-0219050Y0083978D03*
X-0207843Y0083956D03*
X-0208519Y0104739D03*
X-0213771Y0098039D03*
X-0207400Y0091100D03*
X-0218040Y0083960D03*
X-0197748Y0084015D03*
X-0182800Y0112400D03*
X-0217700Y0091100D03*
X-0182400Y0088400D03*
G54D73*
X-0197010Y0113450D03*
X-0198570D03*
X-0200130D03*
X-0201690D03*
X-0203250D03*
X-0204810D03*
X-0206370D03*
X-0207930D03*
X-0211050D03*
X-0212610D03*
G54D74*
X-0194250Y0097650D03*
X-0195000Y0096900D03*
Y0096150D03*
X-0193500D03*
X-0194250Y0096900D03*
Y0096150D03*
X-0193500Y0096900D03*
X-0204450Y0097600D03*
X-0205200Y0096850D03*
Y0096100D03*
X-0203700D03*
X-0204450Y0096850D03*
Y0096100D03*
X-0203700Y0096850D03*
X-0214650Y0097650D03*
X-0215400Y0096900D03*
Y0096150D03*
X-0213900D03*
X-0214650Y0096900D03*
Y0096150D03*
X-0213900Y0096900D03*
M02*
