*
G04 Mass Parameters ***
*
G04 Image ***
*
%IND:\ORCAD_PCB\UNIVERSAL SERVO DRIVER V6_1\UNIVERSAL_SERVO_DRIVER_VERSION6.SMB*%
%ICAS*%
%MOIN*%
%IPPOS*%
%ASAXBY*%
G74*%FSLAN2X34Y34*%
*
G04 Aperture Definitions ***
*
%ADD10C,0.0620*%
%ADD11R,0.0609X0.0609*%
%ADD12R,0.0500X0.0500*%
%ADD13C,0.0520*%
%ADD14R,0.0520X0.0520*%
%ADD15C,0.1000*%
%ADD16R,0.1000X0.0640*%
%ADD17R,0.4000X0.2750*%
%ADD18R,0.2000X0.0600*%
%ADD19O,0.2000X0.1500*%
%ADD20R,0.0480X0.0760*%
%ADD21O,0.1100X0.1300*%
%ADD22R,0.1100X0.1100*%
%ADD23C,0.0580*%
%ADD24R,0.0580X0.0580*%
%ADD25C,0.1500*%
%ADD26R,0.2750X0.4000*%
%ADD27R,0.0600X0.2000*%
%ADD28R,0.0590X0.1120*%
%ADD29R,0.0240X0.0900*%
%ADD30R,0.1280X0.1100*%
%ADD31R,0.0370X0.1100*%
%ADD32C,0.0120*%
%ADD33C,0.0100*%
%ADD34C,0.0180*%
%ADD35C,0.0300*%
%ADD36C,0.0400*%
%ADD37C,0.0350*%
%ADD38C,0.0500*%
%ADD39C,0.0150*%
%ADD40C,0.0600*%
%ADD41C,0.1200*%
%ADD42C,0.0200*%
%ADD43C,0.0300*%
%ADD44C,0.0160*%
%ADD45C,0.0250*%
%ADD46C,0.0080*%
%ADD47C,0.0609*%
%ADD48R,0.0630X0.0709*%
%ADD49R,0.0500X0.0300*%
%ADD50R,0.1000X0.1051*%
%ADD51R,0.1120X0.0590*%
%ADD52R,0.0180X0.0590*%
%ADD53R,0.0590X0.0180*%
%ADD54R,0.1100X0.1280*%
%ADD55R,0.1100X0.0370*%
%ADD56C,0.0669*%
%ADD57C,0.0660*%
%ADD58C,0.0787*%
%ADD59R,0.1000X0.1000*%
%ADD60C,0.1050*%
%ADD61C,0.0650*%
%ADD62R,0.0220X0.0630*%
%ADD63R,0.0630X0.0220*%
%ADD64C,0.0070*%
%ADD65C,0.0060*%
%ADD66C,0.0024*%
%ADD67C,0.0118*%
%ADD68C,0.0030*%
%ADD69C,0.0040*%
%ADD70R,0.0120X0.0120*%
%ADD71C,0.0010*%
%ADD72C,0.0250*%
%ADD73C,0.1100*%
%ADD74C,0.0250*%
%ADD75C,0.0050*%
*
G04 Plot Data ***
*
G54D12*
X-0199500Y0099200D03*
X-0198660D03*
X-0209700D03*
X-0208860D03*
X-0220100D03*
X-0219260D03*
X-0197300Y0089200D03*
Y0090040D03*
X-0198600Y0097100D03*
Y0097940D03*
X-0200500Y0078700D03*
Y0079540D03*
X-0207500Y0089200D03*
Y0090040D03*
X-0208800Y0097100D03*
Y0097940D03*
X-0210600Y0078700D03*
Y0079540D03*
X-0217700Y0089200D03*
Y0090040D03*
X-0219200Y0097100D03*
Y0097940D03*
X-0220770Y0078699D03*
Y0079539D03*
X-0201750Y0079650D03*
Y0078810D03*
X-0211900Y0079600D03*
Y0078760D03*
X-0221800Y0079500D03*
Y0078660D03*
X-0201720Y0081380D03*
Y0082220D03*
X-0211900Y0081400D03*
Y0082240D03*
X-0221850Y0081400D03*
Y0082240D03*
X-0234950Y0094350D03*
Y0093510D03*
Y0095460D03*
Y0096300D03*
X-0177100Y0082600D03*
X-0177940D03*
X-0177950Y0087050D03*
X-0177110D03*
X-0182500Y0082500D03*
X-0183340D03*
X-0183300Y0086950D03*
X-0182460D03*
X-0200000Y0109300D03*
X-0200840D03*
X-0210050D03*
X-0210890D03*
X-0190150Y0080200D03*
Y0081040D03*
X-0199200Y0082200D03*
X-0198360D03*
X-0209300D03*
X-0208460D03*
X-0219500D03*
X-0218660D03*
G54D13*
X-0180200Y0087050D03*
X-0185600Y0088800D03*
X-0185750Y0078000D03*
X-0172050Y0084750D03*
X-0185750Y0083800D03*
X-0178800Y0077350D03*
G54D14*
X-0180200Y0088050D03*
X-0185600Y0089800D03*
X-0185750Y0079000D03*
X-0172050Y0083750D03*
X-0185750Y0084800D03*
X-0177800Y0077350D03*
G54D15*
X-0184250Y0096300D03*
Y0094300D03*
X-0175100Y0112450D03*
X-0173100D03*
X-0184250Y0103050D03*
Y0101050D03*
X-0175150Y0105300D03*
X-0173150D03*
G54D19*
X-0178967Y0103300D03*
Y0099300D03*
Y0096300D03*
Y0093300D03*
Y0115200D03*
Y0111200D03*
Y0108200D03*
Y0105200D03*
G54D22*
X-0195450Y0113450D03*
X-0209490D03*
G54D23*
X-0237100Y0105350D03*
X-0192500Y0077200D03*
X-0193500D03*
G54D24*
X-0237100Y0104350D03*
X-0191500Y0077200D03*
G54D48*
X-0200400Y0082315D03*
Y0080885D03*
X-0210500Y0082315D03*
Y0080885D03*
X-0220700Y0082315D03*
Y0080885D03*
G54D49*
X-0200360Y0097086D03*
X-0210560D03*
X-0220960D03*
G54D50*
X-0200400Y0098000D03*
X-0210600D03*
X-0221000D03*
G54D51*
X-0205050Y0107150D03*
Y0108830D03*
X-0203200Y0107150D03*
Y0108830D03*
X-0215300Y0107150D03*
Y0108830D03*
X-0213400Y0107170D03*
Y0108850D03*
G54D54*
X-0175745Y0084750D03*
X-0181095Y0084700D03*
G54D55*
X-0177955Y0083848D03*
Y0084750D03*
Y0085652D03*
X-0183305Y0083798D03*
Y0084700D03*
Y0085602D03*
G54D56*
X-0237150Y0094450D03*
Y0093450D03*
Y0092450D03*
Y0091450D03*
Y0090450D03*
Y0089450D03*
Y0088450D03*
Y0087450D03*
Y0086450D03*
Y0085450D03*
Y0084450D03*
Y0083450D03*
Y0082450D03*
Y0081450D03*
Y0080450D03*
X-0223150D03*
Y0081450D03*
Y0082450D03*
Y0083450D03*
Y0084450D03*
Y0085450D03*
Y0086450D03*
Y0087450D03*
Y0088450D03*
Y0089450D03*
Y0090450D03*
Y0091450D03*
Y0092450D03*
Y0093450D03*
Y0094450D03*
Y0095450D03*
G54D57*
X-0237150D03*
G54D60*
X-0235900Y0107300D03*
X-0173900Y0077050D03*
X-0183900Y0108900D03*
X-0213250Y0077750D03*
X-0237250Y0077800D03*
G54D62*
X-0191784Y0081642D03*
X-0191528D03*
X-0191272D03*
X-0191016D03*
Y0079358D03*
X-0191272D03*
X-0191528D03*
X-0191784D03*
G54D63*
X-0201492Y0107616D03*
Y0107872D03*
Y0108128D03*
Y0108384D03*
X-0199208D03*
Y0108128D03*
Y0107872D03*
Y0107616D03*
X-0211592D03*
Y0107872D03*
Y0108128D03*
Y0108384D03*
X-0209308D03*
Y0108128D03*
Y0107872D03*
Y0107616D03*
G54D72*
X-0197300Y0090985D03*
X-0193290Y0097952D03*
X-0196062Y0098340D03*
X-0189600Y0082300D03*
X-0179200Y0082400D03*
X-0174400Y0087600D03*
X-0200900Y0115400D03*
X-0181200Y0081800D03*
X-0192470Y0082300D03*
X-0201700Y0078000D03*
X-0211900D03*
X-0201690Y0077988D03*
X-0195155Y0079746D03*
X-0215674Y0086296D03*
Y0079574D03*
X-0202000Y0109900D03*
X-0202100Y0106700D03*
X-0207932Y0107868D03*
X-0212200Y0106800D03*
X-0191556Y0078400D03*
X-0217000Y0108100D03*
X-0207913Y0107868D03*
X-0212213Y0109867D03*
X-0184300Y0085700D03*
Y0081600D03*
X-0182000Y0077800D03*
X-0216300Y0078900D03*
X-0195734Y0078883D03*
X-0206100Y0078900D03*
X-0219844Y0080195D03*
X-0205421Y0086260D03*
X-0205448Y0079567D03*
X-0209702Y0080200D03*
X-0195093Y0086300D03*
X-0189600Y0099700D03*
X-0199600Y0080200D03*
X-0192499Y0082300D03*
X-0196288Y0105302D03*
X-0206309Y0105300D03*
X-0191700Y0084100D03*
X-0182831Y0077700D03*
X-0197428Y0107872D03*
X-0197489D03*
X-0175700Y0081700D03*
X-0184500Y0077200D03*
X-0183302Y0087702D03*
X-0206300Y0098400D03*
X-0191900Y0109600D03*
X-0232700Y0095500D03*
X-0181200Y0082500D03*
X-0178900Y0087100D03*
X-0194350Y0084150D03*
X-0216608Y0098257D03*
X-0181200Y0079000D03*
X-0176400Y0081800D03*
X-0171900Y0091700D03*
X-0222000Y0077947D03*
X-0190165Y0087100D03*
X-0190000D03*
X-0203558Y0098017D03*
X-0208331Y0083956D03*
X-0218534Y0083960D03*
X-0191000Y0084100D03*
X-0177050Y0084750D03*
X-0184000Y0086900D03*
X-0190100Y0109100D03*
X-0229300Y0097700D03*
X-0209339Y0083916D03*
X-0199209Y0083959D03*
X-0219521Y0083951D03*
X-0208866Y0083932D03*
X-0234700Y0104400D03*
X-0187392Y0102009D03*
X-0198740Y0083989D03*
X-0218400Y0097900D03*
X-0181111Y0091792D03*
X-0208005Y0098027D03*
X-0195751Y0078874D03*
X-0198252Y0084022D03*
X-0197800Y0098000D03*
X-0198000Y0104300D03*
X-0219050Y0083978D03*
X-0207843Y0083956D03*
X-0208519Y0104739D03*
X-0213771Y0098039D03*
X-0207400Y0091100D03*
X-0218040Y0083960D03*
X-0197748Y0084015D03*
X-0182800Y0112400D03*
X-0217700Y0091100D03*
X-0182400Y0088400D03*
G54D73*
X-0197010Y0113450D03*
X-0198570D03*
X-0200130D03*
X-0201690D03*
X-0203250D03*
X-0204810D03*
X-0206370D03*
X-0207930D03*
X-0211050D03*
X-0212610D03*
G54D74*
X-0194250Y0097650D03*
X-0195000Y0096900D03*
Y0096150D03*
X-0193500D03*
X-0194250Y0096900D03*
Y0096150D03*
X-0193500Y0096900D03*
X-0204450Y0097600D03*
X-0205200Y0096850D03*
Y0096100D03*
X-0203700D03*
X-0204450Y0096850D03*
Y0096100D03*
X-0203700Y0096850D03*
X-0214650Y0097650D03*
X-0215400Y0096900D03*
Y0096150D03*
X-0213900D03*
X-0214650Y0096900D03*
Y0096150D03*
X-0213900Y0096900D03*
M02*
