%
T1C0.020F200S100
X-095610Y076500
X-094920Y076320
X-092150Y088750
X-092000Y074050
X-091550Y069450
X-091200Y079650
X-090950Y078900
X-090600Y074050
X-090450Y069450
X-090400Y081900
X-089150Y064550
X-089100Y074050
X-089050Y069450
X-088350Y081700
X-088050Y091250
X-086950Y059900
X-086795Y085595
X-086750Y088200
X-086550Y087850
X-086150Y061200
X-085950Y070260
X-085950Y075150
X-085950Y079750
X-085900Y087350
X-085750Y065300
X-084850Y078150
X-084750Y089950
X-084650Y092000
X-084600Y090950
X-084250Y073250
X-084140Y063640
X-083900Y068500
X-083900Y080650
X-082850Y078150
X-082700Y062300
X-082450Y059000
X-081950Y066290
X-081650Y069950
X-081120Y066290
X-080640Y062580
X-080640Y062590
X-080640Y064380
X-080640Y067380
X-080440Y069943
X-080040Y062980
X-080040Y064680
X-080040Y067080
X-079500Y087150
X-079040Y068954
X-079030Y068970
X-079040Y074200
X-078850Y084650
X-078770Y085140
X-078400Y085350
X-078140Y061730
X-078140Y075730
X-078020Y068830
X-078020Y073710
X-077750Y081380
X-077230Y073300
X-077140Y061730
X-077140Y075730
X-077100Y088600
X-076870Y080480
X-076840Y068340
X-076490Y080240
X-076390Y073580
X-076140Y061730
X-076140Y075730
X-076100Y079870
X-075900Y091500
X-075560Y073290
X-075170Y080110
X-075140Y061730
X-075140Y075730
X-075050Y091300
X-075040Y069330
X-074800Y061200
X-074800Y087350
X-074200Y069750
X-074140Y061730
X-074140Y075730
X-074065Y073483
X-073555Y074615
X-073550Y066300
X-073200Y082550
X-073150Y087350
X-073140Y061730
X-073140Y075730
X-073060Y062820
X-072940Y071030
X-072900Y072270
X-072340Y072280
X-072900Y082100
X-072280Y074345
X-072280Y074370
X-072140Y061730
X-072140Y075730
X-071960Y065720
X-071394Y065156
X-071200Y059810
X-071170Y063430
X-071140Y061730
X-071140Y075730
X-070880Y080020
X-070550Y082400
X-070350Y072320
X-070340Y072330
X-070140Y061730
X-070140Y075730
X-070100Y082550
X-070000Y059460
X-069900Y088900
X-069750Y090250
X-069740Y073830
X-069710Y066510
X-069700Y082700
X-069690Y064090
X-069530Y069510
X-069440Y066030
X-069440Y068030
X-069400Y095050
X-069400Y096700
X-069192Y071805
X-069140Y061730
X-069100Y065780
X-069140Y069520
X-069140Y073330
X-069140Y075730
X-069090Y064280
X-069066Y064256
X-069000Y085950
X-069000Y088550
X-068900Y079950
X-068850Y067100
X-068750Y088150
X-068750Y090650
X-068530Y069500
X-068200Y088250
X-068140Y061730
X-067990Y074380
X-068140Y075730
X-067890Y067910
X-067740Y066930
X-067540Y072730
X-067500Y088350
X-067450Y089020
X-067440Y067520
X-067400Y085950
X-067400Y090700
X-067140Y061730
X-067140Y075730
X-066640Y074030
X-066640Y074830
X-066200Y089000
X-066140Y061730
X-065805Y069370
X-065805Y071615
X-066140Y075730
X-065180Y074030
X-065140Y061730
X-065140Y064430
X-065140Y075730
X-064950Y085415
X-064800Y063600
X-064550Y081550
X-064500Y082250
X-064140Y061730
X-063330Y070620
X-064140Y074030
X-064140Y075730
X-063140Y061730
X-062440Y072730
X-060450Y076660
X-060450Y079950
X-060400Y070850
X-060350Y082550
X-059900Y081830
X-059260Y072970
X-058560Y073200
X-058460Y081600
X-058010Y081970
X-057570Y083320
X-057520Y082340
X-057300Y073200
X-057050Y083700
X-056300Y089150
X-056300Y091050
X-056290Y068260
X-056273Y068243
X-056250Y063500
X-055720Y070620
X-055650Y066100
X-055650Y089650
X-055650Y090700
X-055570Y061850
X-055000Y070650
X-053350Y059650
X-053040Y066460
X-052840Y082730
X-052800Y088900
X-052600Y064900
X-050950Y082200
X-050820Y082750
X-049510Y082170
X-047750Y064900
T3C0.035F200S100
X-082220Y080200
X-082220Y081200
X-079930Y082300
X-078930Y082300
X-075340Y083540
X-075340Y085540
X-074700Y088151
X-074700Y090160
X-072691Y088151
X-072691Y090160
T6C0.045F200S100
X-063140Y075730
T4C0.037F200S100
X-094360Y079720
X-094360Y080720
X-094360Y081720
X-094360Y082720
X-093920Y069060
X-093920Y070060
X-080950Y080200
X-080950Y081200
X-079950Y080200
X-079950Y081200
X-079660Y058820
X-078950Y080200
X-078950Y081200
X-078660Y058820
X-077660Y058820
X-076660Y058820
X-075660Y058820
X-074660Y058820
X-073660Y058820
X-072660Y058820
X-071660Y058820
X-070660Y058820
X-069660Y058820
X-068660Y058820
X-067660Y058820
X-066660Y058820
X-065660Y058820
X-064660Y058820
X-063660Y058820
X-062660Y058820
X-059560Y087650
X-059560Y088650
X-059560Y089650
T2C0.025F200S100
X-076440Y070305
X-075040Y071230
T10C0.125F200S100
X-094350Y092210
X-094200Y059380
X-048900Y094720
X-048580Y058540
T7C0.058F200S100
X-092550Y095110
X-091172Y095110
X-089790Y095110
X-088410Y095110
X-087030Y095110
X-085650Y095110
X-084270Y095110
X-082890Y095110
X-081510Y095110
X-080130Y095110
X-078750Y095110
X-077370Y095110
X-075990Y095110
X-074610Y095110
T5C0.042F200S100
X-068200Y094260
X-067655Y095380
X-067110Y094260
X-066565Y095380
X-066020Y094260
X-065475Y095380
X-064930Y094260
X-064385Y095380
X-063840Y094260
X-056830Y087650
X-055830Y087650
X-054830Y087650
X-053830Y087650
X-052830Y087650
X-051830Y087650
T9C0.120F200S100
X-070940Y094820
X-061100Y094820
T8C0.078F200S100
X-080365Y089020
X-079420Y089020
M30
