*
G04 Mass Parameters ***
*
G04 Image ***
*
%INC:\USERS\PROF JAYASINGHE\DESKTOP\ALOKAPCB\TMC 4671 BOARD E2\TMC 4671 DESIGN PARALLEL BOARD REV1\TMC 4671 DESIGN.SMB*%
%ICAS*%
%MOIN*%
%IPPOS*%
%ASAXBY*%
G74*%FSLAN2X34Y34*%
*
G04 Aperture Definitions ***
*
%ADD10C,0.0550*%
%ADD11C,0.0610*%
%ADD12R,0.0380X0.0320*%
%ADD13R,0.0320X0.0380*%
%ADD14C,0.1200*%
%ADD15C,0.0630*%
%ADD16R,0.0630X0.0630*%
%ADD17C,0.1000*%
%ADD18R,0.1000X0.1000*%
%ADD19C,0.0580*%
%ADD20R,0.0580X0.0580*%
%ADD21C,0.0700*%
%ADD22C,0.1500*%
%ADD23C,0.0300*%
%ADD24C,0.0790*%
%ADD25C,0.0400*%
%ADD26R,0.0380X0.0100*%
%ADD27C,0.0250*%
%ADD28C,0.0120*%
%ADD29C,0.0250*%
%ADD30C,0.0080*%
%ADD31C,0.0250*%
%ADD32C,0.0100*%
%ADD33C,0.0200*%
%ADD34C,0.0180*%
%ADD35C,0.0670*%
%ADD36C,0.0660*%
%ADD37R,0.0600X0.0600*%
%ADD38R,0.0400X0.0340*%
%ADD39R,0.0500X0.0340*%
%ADD40R,0.0260X0.0560*%
%ADD41C,0.1050*%
%ADD42R,0.0370X0.0750*%
%ADD43R,0.0260X0.0630*%
%ADD44R,0.0500X0.0500*%
%ADD45C,0.0600*%
%ADD46R,0.3540X0.1970*%
%ADD47R,0.0080X0.0340*%
%ADD48R,0.0340X0.0080*%
%ADD49R,0.0200X0.0580*%
%ADD50R,0.0580X0.0200*%
%ADD51R,0.0850X0.0600*%
%ADD52R,0.0520X0.0450*%
%ADD53C,0.0060*%
%ADD54C,0.0010*%
%ADD55C,0.0040*%
%ADD56C,0.0020*%
%ADD57C,0.0030*%
%ADD58C,0.0787*%
%ADD59R,0.0257X0.0557*%
%ADD60R,0.0080X0.0337*%
%ADD61R,0.0337X0.0080*%
%ADD62R,0.0197X0.0575*%
%ADD63R,0.0575X0.0197*%
%ADD64C,0.0039*%
%ADD65C,0.0118*%
%ADD66R,0.0610X0.0610*%
%ADD67R,0.0340X0.0400*%
%ADD68R,0.0340X0.0500*%
%ADD69R,0.0480X0.0760*%
%ADD70R,0.0760X0.0480*%
%ADD71C,0.0620*%
%ADD72R,0.0620X0.0620*%
%ADD73R,0.0750X0.0370*%
%ADD74R,0.0630X0.0260*%
%ADD75R,0.1970X0.3540*%
%ADD76R,0.0100X0.0380*%
%ADD77R,0.0700X0.0120*%
%ADD78R,0.0120X0.0700*%
%ADD79R,0.0220X0.0900*%
%ADD80R,0.1120X0.0650*%
%ADD81R,0.0170X0.0670*%
%ADD82R,0.1280X0.1100*%
%ADD83R,0.0370X0.1100*%
%ADD84R,0.0450X0.0520*%
%ADD85C,0.0300*%
%ADD86C,0.0050*%
%ADD87C,0.0160*%
%ADD88C,0.0140*%
%ADD89R,0.0520X0.0240*%
*
G04 Plot Data ***
*
G54D32*
G01X-0056317Y0088350D02*
X-0056400D01*
G54D13*
X-0079530Y0069280D03*
X-0080090D03*
G54D14*
X-0070940Y0094820D03*
X-0061100D03*
G54D15*
X-0067110Y0094260D03*
X-0066020D03*
X-0064930D03*
X-0063840D03*
X-0067655Y0095380D03*
X-0066565D03*
X-0065475D03*
X-0064385D03*
G54D16*
X-0068200Y0094260D03*
G54D19*
X-0093920Y0070060D03*
X-0080950Y0081200D03*
X-0079950Y0080200D03*
Y0081200D03*
X-0078950Y0080200D03*
Y0081200D03*
X-0063660Y0058820D03*
X-0064660D03*
X-0065660D03*
X-0066660D03*
X-0067660D03*
X-0068660D03*
X-0069660D03*
X-0070660D03*
X-0072660D03*
X-0073660D03*
X-0074660D03*
X-0075660D03*
X-0076660D03*
X-0077660D03*
X-0078660D03*
X-0079660D03*
X-0059560Y0088650D03*
Y0089650D03*
X-0094360Y0081720D03*
Y0080720D03*
Y0079720D03*
X-0091172Y0095110D03*
X-0089790D03*
X-0088410D03*
X-0087030D03*
X-0085650D03*
X-0084270D03*
X-0082890D03*
X-0081510D03*
X-0078750D03*
X-0077370D03*
X-0075990D03*
X-0074610D03*
G54D20*
X-0093920Y0069060D03*
X-0080950Y0080200D03*
X-0062660Y0058820D03*
X-0071660D03*
X-0059560Y0087650D03*
X-0094360Y0082720D03*
X-0092550Y0095110D03*
X-0080130D03*
G54D21*
X-0079930Y0082300D03*
X-0078930D03*
X-0082220Y0080200D03*
Y0081200D03*
G54D22*
X-0094350Y0092210D03*
X-0048900Y0094720D03*
X-0048580Y0058540D03*
X-0094200Y0059380D03*
G54D23*
X-0065805Y0069370D03*
Y0071615D03*
G54D27*
X-0095610Y0076500D03*
X-0072280Y0074345D03*
X-0070340Y0072330D03*
X-0056273Y0068243D03*
X-0072280Y0074370D03*
X-0070350Y0072320D03*
G54D29*
X-0070880Y0080020D03*
X-0082700Y0062300D03*
X-0086150Y0061200D03*
X-0082850Y0078150D03*
X-0067400Y0085950D03*
X-0069000D03*
X-0073150Y0087350D03*
X-0074800D03*
X-0077100Y0088600D03*
X-0080640Y0062580D03*
Y0067380D03*
Y0064380D03*
Y0062590D03*
X-0053350Y0059650D03*
X-0079040Y0068954D03*
X-0069740Y0073830D03*
X-0094920Y0076320D03*
X-0088350Y0081700D03*
X-0077750Y0081380D03*
X-0075900Y0091500D03*
X-0085900Y0087350D03*
X-0088050Y0091250D03*
X-0092150Y0088750D03*
X-0072900Y0072270D03*
X-0073555Y0074615D03*
X-0076390Y0073580D03*
X-0055570Y0061850D03*
X-0071170Y0063430D03*
X-0069066Y0064256D03*
X-0069090Y0064280D03*
X-0069100Y0065780D03*
X-0079030Y0068970D03*
X-0062440Y0072730D03*
X-0078020Y0073710D03*
Y0068830D03*
X-0069140Y0073330D03*
X-0067540Y0072730D03*
X-0068850Y0067100D03*
X-0068530Y0069500D03*
X-0081650Y0069950D03*
X-0069690Y0064090D03*
X-0071960Y0065720D03*
X-0063330Y0070620D03*
X-0064140Y0074030D03*
X-0066640D03*
X-0065180D03*
X-0072340Y0072280D03*
X-0080440Y0069943D03*
X-0056250Y0063500D03*
X-0059260Y0072970D03*
X-0076840Y0068340D03*
X-0077230Y0073300D03*
X-0086950Y0059900D03*
X-0075560Y0073290D03*
X-0050820Y0082750D03*
X-0052840Y0082730D03*
X-0066640Y0074830D03*
X-0067890Y0067910D03*
X-0090400Y0081900D03*
X-0065140Y0064430D03*
X-0082450Y0059000D03*
X-0047750Y0064900D03*
X-0052600D03*
X-0055000Y0070650D03*
X-0091200Y0079650D03*
X-0080040Y0067080D03*
X-0079500Y0087150D03*
X-0083900Y0080650D03*
X-0067440Y0067520D03*
X-0069530Y0069510D03*
X-0085750Y0065300D03*
X-0074065Y0073483D03*
X-0064800Y0063600D03*
X-0073060Y0062820D03*
X-0073550Y0066300D03*
X-0074200Y0069750D03*
X-0060400Y0070850D03*
X-0075050Y0091300D03*
X-0069400Y0096700D03*
Y0095050D03*
X-0085950Y0070260D03*
X-0084140Y0063640D03*
X-0075170Y0080110D03*
X-0080040Y0064680D03*
Y0062980D03*
X-0069710Y0066510D03*
X-0069440Y0068030D03*
X-0057570Y0083320D03*
X-0076870Y0080480D03*
X-0084850Y0078150D03*
X-0052800Y0088900D03*
X-0076490Y0080240D03*
X-0084250Y0073250D03*
X-0076100Y0079870D03*
X-0083900Y0068500D03*
X-0057050Y0083700D03*
X-0067400Y0090700D03*
X-0089050Y0069450D03*
X-0090450D03*
X-0091550D03*
X-0090950Y0078900D03*
X-0066200Y0089000D03*
X-0067450Y0089020D03*
X-0073200Y0082550D03*
X-0050950Y0082200D03*
X-0092000Y0074050D03*
X-0090600D03*
X-0089100D03*
X-0069750Y0090250D03*
X-0069900Y0088900D03*
X-0069700Y0082700D03*
X-0078400Y0085350D03*
X-0053040Y0066460D03*
X-0058010Y0081970D03*
X-0068750Y0088150D03*
X-0069192Y0071805D03*
X-0069140Y0069520D03*
X-0081120Y0066290D03*
X-0081950D03*
X-0089150Y0064550D03*
X-0085950Y0079750D03*
Y0075150D03*
X-0070100Y0082550D03*
X-0078770Y0085140D03*
X-0068750Y0090650D03*
X-0069000Y0088550D03*
X-0055650Y0089650D03*
Y0090700D03*
X-0078850Y0084650D03*
X-0070550Y0082400D03*
X-0056300Y0091050D03*
Y0089150D03*
X-0049510Y0082170D03*
X-0072900Y0082100D03*
X-0084750Y0089950D03*
X-0086750Y0088200D03*
X-0071200Y0059810D03*
X-0075040Y0069330D03*
X-0059900Y0081830D03*
X-0064550Y0081550D03*
X-0064500Y0082250D03*
X-0060350Y0082550D03*
X-0055650Y0066100D03*
X-0055720Y0070620D03*
X-0067990Y0074380D03*
X-0057520Y0082340D03*
X-0086550Y0087850D03*
X-0084600Y0090950D03*
X-0067740Y0066930D03*
X-0069440Y0066030D03*
X-0067500Y0088350D03*
X-0079040Y0074200D03*
X-0068900Y0079950D03*
X-0060450D03*
Y0076660D03*
X-0070000Y0059460D03*
X-0086795Y0085595D03*
X-0084650Y0092000D03*
X-0068200Y0088250D03*
X-0064950Y0085415D03*
X-0058460Y0081600D03*
X-0074800Y0061200D03*
X-0057300Y0073200D03*
X-0058560D03*
X-0056290Y0068260D03*
X-0072940Y0071030D03*
X-0071394Y0065156D03*
G54D35*
X-0064140Y0075730D03*
X-0065140D03*
X-0066140D03*
X-0067140D03*
X-0068140D03*
X-0069140D03*
X-0070140D03*
X-0071140D03*
X-0072140D03*
X-0073140D03*
X-0074140D03*
X-0075140D03*
X-0076140D03*
X-0077140D03*
X-0078140D03*
Y0061730D03*
X-0077140D03*
X-0076140D03*
X-0075140D03*
X-0074140D03*
X-0073140D03*
X-0072140D03*
X-0071140D03*
X-0070140D03*
X-0069140D03*
X-0068140D03*
X-0067140D03*
X-0066140D03*
X-0065140D03*
X-0064140D03*
X-0063140D03*
G54D36*
Y0075730D03*
G54D44*
X-0093940Y0073840D03*
Y0074680D03*
X-0073540Y0091300D03*
X-0072700D03*
X-0075870Y0090180D03*
Y0089340D03*
G54D45*
X-0076440Y0070305D03*
X-0075040Y0071230D03*
G54D58*
X-0075340Y0083540D03*
Y0085540D03*
X-0074700Y0090160D03*
X-0072691D03*
X-0074700Y0088151D03*
X-0072691D03*
X-0079420Y0089020D03*
X-0080365D03*
G54D71*
X-0055830Y0087650D03*
X-0054830D03*
X-0053830D03*
X-0052830D03*
X-0051830D03*
G54D72*
X-0056830D03*
G54D89*
X-0093920Y0072393D03*
Y0071567D03*
X-0094920Y0071980D03*
M02*
