*
G04 Mass Parameters ***
*
G04 Image ***
*
%INC:\USERS\PROF JAYASINGHE\DESKTOP\ALOKAPCB\TMC 4671 BOARD E2\TMC 4671 DESIGN PARALLEL BOARD REV1\TMC 4671 DESIGN.SSB*%
%ICAS*%
%MOIN*%
%IPPOS*%
%ASAXBY*%
G74*%FSLAN2X34Y34*%
*
G04 Aperture Definitions ***
*
%ADD10C,0.0550*%
%ADD11C,0.0610*%
%ADD12R,0.0380X0.0320*%
%ADD13R,0.0320X0.0380*%
%ADD14C,0.1200*%
%ADD15C,0.0630*%
%ADD16R,0.0630X0.0630*%
%ADD17C,0.1000*%
%ADD18R,0.1000X0.1000*%
%ADD19C,0.0580*%
%ADD20R,0.0580X0.0580*%
%ADD21C,0.0700*%
%ADD22C,0.1500*%
%ADD23C,0.0300*%
%ADD24C,0.0790*%
%ADD25C,0.0400*%
%ADD26R,0.0380X0.0100*%
%ADD27C,0.0250*%
%ADD28C,0.0120*%
%ADD29C,0.0250*%
%ADD30C,0.0080*%
%ADD31C,0.0250*%
%ADD32C,0.0100*%
%ADD33C,0.0200*%
%ADD34C,0.0180*%
%ADD35C,0.0670*%
%ADD36C,0.0660*%
%ADD37R,0.0600X0.0600*%
%ADD38R,0.0400X0.0340*%
%ADD39R,0.0500X0.0340*%
%ADD40R,0.0260X0.0560*%
%ADD41C,0.1050*%
%ADD42R,0.0370X0.0750*%
%ADD43R,0.0260X0.0630*%
%ADD44R,0.0500X0.0500*%
%ADD45C,0.0600*%
%ADD46R,0.3540X0.1970*%
%ADD47R,0.0080X0.0340*%
%ADD48R,0.0340X0.0080*%
%ADD49R,0.0200X0.0580*%
%ADD50R,0.0580X0.0200*%
%ADD51R,0.0850X0.0600*%
%ADD52R,0.0520X0.0450*%
%ADD53C,0.0060*%
%ADD54C,0.0010*%
%ADD55C,0.0040*%
%ADD56C,0.0020*%
%ADD57C,0.0030*%
%ADD58C,0.0787*%
%ADD59R,0.0257X0.0557*%
%ADD60R,0.0080X0.0337*%
%ADD61R,0.0337X0.0080*%
%ADD62R,0.0197X0.0575*%
%ADD63R,0.0575X0.0197*%
%ADD64C,0.0039*%
%ADD65C,0.0118*%
%ADD66R,0.0610X0.0610*%
%ADD67R,0.0340X0.0400*%
%ADD68R,0.0340X0.0500*%
%ADD69R,0.0480X0.0760*%
%ADD70R,0.0760X0.0480*%
%ADD71C,0.0620*%
%ADD72R,0.0620X0.0620*%
%ADD73R,0.0750X0.0370*%
%ADD74R,0.0630X0.0260*%
%ADD75R,0.1970X0.3540*%
%ADD76R,0.0100X0.0380*%
%ADD77R,0.0700X0.0120*%
%ADD78R,0.0120X0.0700*%
%ADD79R,0.0220X0.0900*%
%ADD80R,0.1120X0.0650*%
%ADD81R,0.0170X0.0670*%
%ADD82R,0.1280X0.1100*%
%ADD83R,0.0370X0.1100*%
%ADD84R,0.0450X0.0520*%
%ADD85C,0.0300*%
%ADD86C,0.0050*%
%ADD87C,0.0160*%
%ADD88C,0.0140*%
%ADD89R,0.0520X0.0240*%
%ADD90C,0.0079*%
*
G04 Plot Data ***
*
G54D30*
G01X-0071547Y0093244D02*
X-0071519Y0093299D01*
X-0071352D01*
X-0071324Y0093244D01*
Y0093133D01*
X-0071380Y0093077D01*
X-0071547D01*
Y0092966D01*
X-0071324D01*
X-0071929Y0093188D02*
Y0093244D01*
X-0071901Y0093299D01*
X-0071790D01*
X-0071762Y0093244D01*
Y0092966D01*
X-0071734D02*
X-0071845D01*
X-0069984Y0098071D02*
X-0069873D01*
Y0098182D01*
X-0069901Y0098237D01*
X-0070068D01*
X-0070096Y0098182D01*
Y0097960D01*
X-0070068Y0097904D01*
X-0069901D01*
X-0069873Y0097960D01*
X-0070283Y0097904D02*
Y0098182D01*
X-0070311Y0098237D01*
X-0070478D01*
X-0070506Y0098182D01*
Y0097904D01*
X-0070693Y0098237D02*
X-0070888D01*
Y0097904D01*
X-0071298Y0098071D02*
X-0071131D01*
X-0071075Y0098015D01*
Y0097960D01*
X-0071131Y0097904D01*
X-0071298D01*
Y0098237D01*
X-0068964Y0094297D02*
X-0069075D01*
X-0069020D02*
Y0093964D01*
X-0069075Y0094020D01*
X-0063131Y0094242D02*
X-0063103Y0094297D01*
X-0062937D01*
X-0062909Y0094242D01*
Y0094131D01*
X-0062964Y0094075D01*
X-0063131D01*
Y0093964D01*
X-0062909D01*
X-0068603Y0095381D02*
X-0068437D01*
X-0068409Y0095436D01*
Y0095492D01*
X-0068437Y0095547D01*
X-0068603D01*
X-0068631Y0095492D01*
Y0095436D01*
X-0068520Y0095214D01*
X-0063437Y0095381D02*
X-0063603D01*
X-0063631Y0095325D01*
Y0095270D01*
X-0063603Y0095214D01*
X-0063437D01*
X-0063409Y0095270D01*
Y0095325D01*
X-0063520Y0095547D01*
X-0072145Y0098630D02*
Y0093505D01*
X-0059895D01*
Y0098630D01*
X-0062520D01*
Y0100880D01*
X-0069520D01*
Y0098630D01*
X-0072145D01*
G54D33*
G01X-0067695Y0068607D02*
G03X-0067545Y0068757I0000000J0000150D01*
G01X-0067845D02*
G03X-0067695Y0068607I0000150J0000000D01*
Y0068907D02*
G03X-0067845Y0068757I0000000J0000150D01*
G01X-0067545D02*
G03X-0067695Y0068907I0000150J0000000D01*
G54D53*
G01X-0093246Y0074555D02*
Y0074333D01*
X-0093024Y0074444D01*
Y0074500D01*
X-0093357D01*
X-0093191Y0073991D02*
Y0074158D01*
X-0093246Y0074185D01*
X-0093302D01*
X-0093357Y0074158D01*
Y0073991D01*
X-0093302Y0073963D01*
X-0093246D01*
X-0093024Y0074074D01*
X-0093191Y0073732D02*
X-0093357Y0073815D01*
X-0093191Y0073593D02*
Y0073760D01*
X-0093135Y0073815D01*
X-0093079D01*
X-0093024Y0073760D01*
Y0073593D01*
X-0093357D01*
X-0076258Y0089687D02*
X-0076203Y0089631D01*
Y0089520D01*
X-0076258Y0089464D01*
X-0076314D01*
X-0076425Y0089576D01*
X-0076536Y0089464D01*
Y0089687D01*
X-0076258Y0090057D02*
X-0076203Y0090001D01*
Y0089890D01*
X-0076258Y0089834D01*
X-0076314D01*
X-0076425Y0089946D01*
X-0076536Y0089834D01*
Y0090057D01*
X-0076258Y0090204D02*
X-0076203Y0090232D01*
Y0090399D01*
X-0076258Y0090427D01*
X-0076480D01*
X-0076536Y0090399D01*
Y0090232D01*
X-0076480Y0090204D01*
X-0073444Y0091956D02*
X-0073222D01*
X-0073333Y0092178D01*
X-0073389D01*
Y0091845D01*
X-0073074D02*
X-0072852D01*
X-0073074Y0092067D01*
Y0092123D01*
X-0073047Y0092178D01*
X-0072880D01*
X-0072852Y0092123D01*
X-0072621Y0092012D02*
X-0072704Y0091845D01*
X-0072482Y0092012D02*
X-0072649D01*
X-0072704Y0092067D01*
Y0092123D01*
X-0072649Y0092178D01*
X-0072482D01*
Y0091845D01*
X-0094785Y0072630D02*
Y0072231D01*
X-0094315Y0075060D02*
X-0093565D01*
Y0073460D01*
X-0094315D01*
Y0075060D01*
X-0094055Y0071818D02*
Y0072142D01*
X-0094785Y0071330D02*
X-0094240D01*
X-0094785Y0071729D02*
Y0071330D01*
X-0094240Y0072630D02*
X-0094785D01*
X-0075495Y0088960D02*
X-0076245D01*
Y0090560D01*
X-0075495D01*
Y0088960D01*
X-0072320Y0091675D02*
Y0090925D01*
X-0073920D01*
Y0091675D01*
X-0072320D01*
X-0079235Y0068955D02*
X-0080385D01*
Y0069600D01*
X-0079235D01*
Y0068955D01*
G01X-0093880Y0073030D02*
G03X-0093830Y0073080I0000000J0000050D01*
G01X-0093930D02*
G03X-0093880Y0073030I0000050J0000000D01*
Y0073130D02*
G03X-0093930Y0073080I0000000J0000050D01*
G01X-0093830D02*
G03X-0093880Y0073130I0000050J0000000D01*
G54D55*
G01X-0078982Y0069227D02*
X-0078949Y0069210D01*
Y0069110D01*
X-0078982Y0069094D01*
X-0079049D01*
X-0079082Y0069127D01*
Y0069227D01*
X-0079149D01*
Y0069094D01*
X-0078982Y0069324D02*
X-0078949Y0069340D01*
Y0069440D01*
X-0078982Y0069457D01*
X-0079115D01*
X-0079149Y0069440D01*
Y0069340D01*
X-0079115Y0069324D01*
G54D57*
G01X-0094309Y0072391D02*
Y0072502D01*
Y0072446D02*
X-0094642D01*
X-0094587Y0072502D01*
X-0094420Y0072756D02*
X-0094309Y0072645D01*
X-0094364Y0072867D02*
X-0094309Y0072839D01*
Y0072728D01*
X-0094364Y0072701D01*
X-0094420Y0072645D01*
X-0094587D01*
X-0094642Y0072673D01*
Y0072839D01*
X-0094587Y0072867D01*
X-0094364D01*
G54D58*
X-0079420Y0089020D03*
X-0080365D03*
M02*
